<svg width="495" height="382" viewBox="0 0 495 382" fill="none" xmlns="http://www.w3.org/2000/svg">
<path d="M456.9 215.425V211.625C456.9 205.625 455 199.825 451.5 195.025C447.3 146.325 425.9 100.625 390.9 66.325L396.1 61.125C313.5 -20.375 180.8 -20.375 98.2 61.125L103.4 66.325C68.5 100.625 46.9999 146.225 42.7999 194.925C39.2999 199.725 37.4 205.525 37.4 211.525V215.325C11.1 215.325 0 245.225 0 282.225C0 319.125 11.1 349.125 37.4 349.125V352.925C37.4 368.725 50.3 381.625 66.1 381.625H71.2C87 381.625 99.9 368.725 99.9 352.925V211.625C99.9 195.825 87 182.925 71.2 182.925H66.1C62.5 182.925 59 183.625 55.7 184.925C61.7 143.025 81.4 104.225 111.6 74.625L116.8 79.825C189.1 8.62502 305.2 8.62502 377.5 79.825L382.7 74.625C412.9 104.225 432.6 143.025 438.6 184.925C435.3 183.625 431.7 182.925 428.1 182.925H423C407.2 182.925 394.3 195.825 394.3 211.625V353.025C394.3 368.825 407.2 381.725 423 381.725H428.1C443.9 381.725 456.8 368.825 456.8 353.025V349.225C483.1 349.225 494.2 319.325 494.2 282.325C494.4 245.325 483.2 215.425 456.9 215.425Z" fill="url(#paint0_linear_26_5318)"/>
<path d="M494.4 282.325C494.4 319.225 483.3 349.225 457 349.225V353.025C457 368.825 444.1 381.725 428.3 381.725H423.2C407.4 381.625 394.5 368.825 394.5 353.025V211.625C394.5 203.725 397.7 196.225 403.5 190.825C415.3 178.325 435 177.825 447.5 189.625C449 191.025 450.4 192.625 451.6 194.425C451.6 194.625 451.6 194.825 451.7 195.025C455.2 199.825 457.1 205.725 457.1 211.625V215.425H457.2C483.2 215.425 494.4 245.325 494.4 282.325Z" fill="url(#paint1_linear_26_5318)"/>
<path d="M95.6 196.325C95.4 196.025 95.3 195.825 95.1 195.525C85.9 181.025 66.7 176.725 52.2 185.925C48.5 188.225 45.4 191.325 42.9 195.025C42.9 195.025 42.7999 195.125 42.7999 195.225C39.3999 200.025 37.5 205.825 37.5 211.725V215.525C11.2 215.525 0.0999756 245.425 0.0999756 282.425C0.0999756 319.425 11.2 349.325 37.5 349.325V353.125C37.5 368.925 50.4 381.825 66.2 381.825H71.2999C87.0999 381.725 100 368.925 100 353.125V211.625C100 206.225 98.5 200.925 95.6 196.325Z" fill="url(#paint2_linear_26_5318)"/>
<path opacity="0.6" d="M26.5 322.425C28.5 327.825 20.6 331.325 18.1 326.125C12.8 315.525 9.5 300.225 9.5 283.125C9.5 265.625 13 250.025 18.4 239.425C21.1 234.225 28.8999 237.725 26.7999 243.225C16.6999 269.725 16.5 296.125 26.5 322.425Z" fill="white"/>
<path opacity="0.6" d="M448.5 322.425C446.5 327.825 454.4 331.325 456.9 326.125C462.2 315.525 465.5 300.225 465.5 283.125C465.5 265.625 462 250.025 456.6 239.425C453.9 234.225 446.1 237.725 448.2 243.225C458.3 269.725 458.4 296.125 448.5 322.425Z" fill="white"/>
<defs>
<linearGradient id="paint0_linear_26_5318" x1="247.256" y1="373.533" x2="247.256" y2="-5.05199" gradientUnits="userSpaceOnUse">
<stop offset="0.4901" stop-color="#00BEFF"/>
<stop offset="0.6961" stop-color="#1096D5"/>
<stop offset="0.893" stop-color="#1D75B4"/>
<stop offset="1" stop-color="#2269A7"/>
</linearGradient>
<linearGradient id="paint1_linear_26_5318" x1="394.476" y1="281.387" x2="494.36" y2="281.387" gradientUnits="userSpaceOnUse">
<stop stop-color="#2269A7"/>
<stop offset="0.3071" stop-color="#1687C6"/>
<stop offset="0.7642" stop-color="#06AFEF"/>
<stop offset="1" stop-color="#00BEFF"/>
</linearGradient>
<linearGradient id="paint2_linear_26_5318" x1="2.27898" y1="281.388" x2="101.368" y2="281.388" gradientUnits="userSpaceOnUse">
<stop stop-color="#00BEFF"/>
<stop offset="0.2358" stop-color="#06AFEF"/>
<stop offset="0.6929" stop-color="#1687C6"/>
<stop offset="1" stop-color="#2269A7"/>
</linearGradient>
</defs>
</svg>
